<svg width="763" height="164" viewBox="0 0 763 164" fill="none" xmlns="http://www.w3.org/2000/svg">
<path d="M203.63 17.7311C182.527 22.3196 165.225 35.5875 155.858 54.3285C150.348 65.4404 148.64 72.7377 148.64 85.5081C148.585 95.7354 149.522 101.264 152.497 109.28C157.787 123.432 168.311 136.7 179.937 143.776L182.968 145.601L185.227 144.716C186.714 144.108 188.147 143.942 189.469 144.163C192.941 144.771 193.437 145.269 193.437 148.033C193.437 150.355 193.547 150.576 195.42 151.35C196.467 151.792 198.286 152.235 199.388 152.29L201.426 152.401L202.253 148.918C203.189 144.882 204.787 142.892 207.597 142.394C210.132 141.897 210.352 142.339 210.793 148.199C210.959 150.797 211.234 153.285 211.399 153.727C211.73 154.778 228.095 154.28 233.384 153.009C259.943 146.651 280.771 124.427 285.509 97.3939C286.446 92.142 286.446 79.04 285.509 73.6222C282.368 55.4894 270.687 37.7436 255.149 27.6268C247.931 22.9277 239.776 19.5555 231.18 17.7311C224.513 16.3491 210.022 16.3491 203.63 17.7311ZM224.568 24.6415C238.949 26.6317 249.639 31.773 259.888 41.6687C269.53 51.0115 275.812 63.1185 277.96 76.7734C279.062 83.739 279.062 87.6641 278.016 94.4086C275.316 111.104 267.216 124.593 253.496 135.097C248.978 138.58 239.115 143.389 233.495 144.937C228.701 146.209 218.452 147.536 217.901 146.983C217.681 146.817 217.846 141.952 218.232 136.258C219.224 120.447 219.334 122.05 217.24 121.94C214.816 121.829 214.32 121.221 213.769 118.014C213.163 114.2 214.43 111.768 217.516 110.662C219.499 109.998 219.94 109.556 220.215 108.119C220.932 104.36 220.436 103.42 217.13 102.369C215.477 101.817 213.328 100.987 212.336 100.49C210.463 99.4947 207.542 96.3436 207.983 95.846C208.148 95.6802 209.967 96.3436 212.005 97.2834C216.965 99.55 221.097 100.158 227.599 99.55C233.164 98.9971 237.296 99.4394 244.46 101.264C251.237 102.978 253.165 103.143 257.353 102.093C263.083 100.711 264.185 98.2785 261.596 92.8607C260.218 89.9307 255.645 85.8951 240.933 74.7832C236.305 71.3004 232.558 68.1492 232.558 67.8175C232.558 67.4305 233.054 66.7119 233.715 66.1038C234.376 65.5509 235.478 64.003 236.25 62.6762C237.572 60.4649 237.627 59.9121 237.296 56.0423C237.131 53.7204 236.745 51.6196 236.47 51.3432C234.982 49.8506 227.819 54.8813 225.67 58.917C224.293 61.46 223.026 61.46 221.262 58.8617C220.16 57.1479 219.885 56.0975 219.885 53.2781C219.885 49.1872 218.948 46.6441 216.854 44.9856C214.926 43.4377 213.273 43.4377 211.399 44.9304C209.416 46.4783 209.526 48.7449 211.62 51.1773C216.138 56.2634 215.918 63.1738 211.454 58.8064C210.463 57.8113 208.81 55.6 207.763 53.8862C203.465 46.5336 200.434 44.1011 197.294 45.4279C195.806 46.036 194.539 47.9709 194.539 49.6294C194.539 51.6196 196.467 53.7204 199.332 54.8813C202.308 56.0975 204.457 58.143 204.457 59.7462C204.457 60.2438 203.575 61.3494 202.473 62.2339C201.371 63.1185 199.939 64.9981 199.277 66.4907L198.01 69.1443L195.696 66.7672C192.169 63.1738 189.304 61.9575 184.455 61.9575C177.898 61.9575 175.86 63.3396 179 65.7168C179.992 66.4355 181.645 69.089 183.408 72.7377C186.439 78.9294 188.367 80.9196 192.28 81.6936C193.271 81.9147 194.208 82.357 194.318 82.6887C194.484 83.0756 192.941 89.8202 190.902 97.6703C186.219 116.135 186.384 114.974 188.092 115.361C190.516 115.969 191.729 118.346 192.831 124.648C193.216 126.639 193.106 127.468 192.555 128.076C191.673 128.905 186.935 129.679 184.07 129.347C182.251 129.182 182.086 129.292 181.425 131.504C180.984 132.83 180.323 133.881 179.937 133.881C179.221 133.881 172.774 127.8 170.184 124.648C160.928 113.537 155.307 96.8411 156.189 83.2968C157.346 66.7672 162.746 54.3285 173.821 42.7743C183.133 33.0445 195.971 26.5211 209.416 24.7521C216.854 23.757 217.956 23.757 224.568 24.6415ZM207.983 105.465C208.589 107.013 208.314 110.662 207.542 112.21C206.055 115.029 203.63 116.854 200.875 117.13C198.451 117.462 198.286 117.351 195.916 114.863C194.539 113.481 193.437 111.823 193.437 111.27C193.437 109.667 196.137 106.792 198.671 105.631C201.536 104.304 207.487 104.194 207.983 105.465ZM211.069 126.141C212.005 127.965 212.887 130.564 213.052 131.891C213.383 133.991 213.218 134.434 211.84 135.76C209.691 137.806 208.038 138.58 204.567 139.354C199.773 140.349 197.9 140.183 197.239 138.635C196.412 136.811 197.073 132.72 198.561 130.453C199.663 128.85 207.818 122.824 208.975 122.824C209.195 122.824 210.132 124.317 211.069 126.141Z" fill="#FFD464"/>
<path d="M94.7177 153.771C92.0862 153.771 89.9394 153.023 88.2774 151.526C86.7538 149.893 85.9921 147.784 85.9921 145.198V23.1275H41.3251C38.832 23.1275 36.893 22.5151 35.508 21.2903C34.1229 20.0655 33.4304 18.2964 33.4304 15.9829C33.4304 13.6694 34.1229 11.9003 35.508 10.6755C36.893 9.45071 38.832 8.83832 41.3251 8.83832H147.903C150.396 8.83832 152.335 9.45071 153.72 10.6755C155.105 11.9003 155.797 13.6694 155.797 15.9829C155.797 18.2964 155.105 20.0655 153.72 21.2903C152.335 22.5151 150.396 23.1275 147.903 23.1275H103.236V145.198C103.236 147.784 102.474 149.893 100.95 151.526C99.4268 153.023 97.3493 153.771 94.7177 153.771Z" fill="#F4F4F4"/>
<path fill-rule="evenodd" clip-rule="evenodd" d="M86.8743 152.954L86.815 152.89C84.8917 150.829 83.9921 148.204 83.9921 145.198V25.1275H41.3251C38.5158 25.1275 36.0447 24.4347 34.1831 22.7885C32.2648 21.0922 31.4304 18.7143 31.4304 15.9829C31.4304 13.2515 32.2648 10.8736 34.1831 9.17728C36.0447 7.53106 38.5158 6.83832 41.3251 6.83832H147.903C150.712 6.83832 153.183 7.53106 155.045 9.17728C156.963 10.8736 157.797 13.2515 157.797 15.9829C157.797 18.7143 156.963 21.0922 155.045 22.7885C153.183 24.4347 150.712 25.1275 147.903 25.1275H105.236V145.198C105.236 148.204 104.336 150.829 102.413 152.89L102.383 152.922L102.352 152.953C100.372 154.898 97.7448 155.771 94.7177 155.771C91.6843 155.771 89.0316 154.897 86.9389 153.012L86.8743 152.954ZM103.236 23.1275H147.903C150.396 23.1275 152.335 22.5151 153.72 21.2903C155.105 20.0655 155.797 18.2964 155.797 15.9829C155.797 13.6694 155.105 11.9003 153.72 10.6755C152.335 9.45071 150.396 8.83832 147.903 8.83832H41.3251C38.832 8.83832 36.893 9.45071 35.508 10.6755C34.1229 11.9003 33.4304 13.6694 33.4304 15.9829C33.4304 18.2964 34.1229 20.0655 35.508 21.2903C36.893 22.5151 38.832 23.1275 41.3251 23.1275H85.9921V145.198C85.9921 147.784 86.7538 149.893 88.2774 151.526C89.9394 153.023 92.0862 153.771 94.7177 153.771C97.3493 153.771 99.4268 153.023 100.95 151.526C102.474 149.893 103.236 147.784 103.236 145.198V23.1275Z" fill="#F4F4F4"/>
<path d="M487.062 24.581C488.898 20.249 491.927 18.083 496.149 18.083C498.903 18.083 501.381 18.9855 503.584 20.7905C505.787 22.5955 506.888 24.8518 506.888 27.5593C506.888 28.8228 506.613 30.1765 506.062 31.6206L460.351 145.336C459.25 147.682 457.598 149.578 455.395 151.022C453.375 152.285 451.081 152.917 448.51 152.917C446.124 152.917 443.829 152.285 441.626 151.022C439.607 149.578 438.046 147.682 436.945 145.336L398.944 50.3024L361.219 145.336C360.301 147.682 358.741 149.578 356.538 151.022C354.335 152.285 351.948 152.917 349.378 152.917C346.991 152.917 344.697 152.285 342.494 151.022C340.291 149.578 338.639 147.682 337.537 145.336L291.826 31.8913C291.275 30.4473 291 29.1838 291 28.1008C291 25.2128 292.193 22.776 294.58 20.7905C297.15 18.805 299.904 17.8123 302.841 17.8123C307.247 17.8123 310.368 19.9783 312.203 24.3103L349.929 124.217L388.756 25.1225C389.857 22.776 391.326 20.971 393.162 19.7075C395.181 18.444 397.292 17.8123 399.495 17.8123C401.882 17.8123 403.993 18.444 405.828 19.7075C407.848 20.971 409.316 22.776 410.234 25.1225L449.061 123.947L487.062 24.581Z" fill="#F4F4F4"/>
<path d="M637.671 121.51C639.69 121.51 641.434 122.322 642.903 123.947C644.372 125.571 645.106 127.647 645.106 130.174C645.106 134.686 641.893 138.838 635.468 142.628C628.859 146.419 621.883 149.307 614.54 151.292C607.197 153.097 600.037 154 593.061 154C572.317 154 555.887 147.953 543.771 135.86C531.838 123.766 525.872 107.07 525.872 85.7708C525.872 72.2332 528.534 60.3202 533.857 50.0316C539.181 39.5626 546.616 31.4401 556.162 25.664C565.892 19.888 576.906 17 589.206 17C606.646 17 620.506 22.5955 630.787 33.7866C641.067 44.9776 646.207 60.1396 646.207 79.2727C646.207 82.8827 645.473 85.5 644.004 87.1245C642.536 88.749 640.149 89.5613 636.845 89.5613H548.176C549.829 120.607 564.79 136.13 593.061 136.13C600.221 136.13 606.371 135.228 611.511 133.423C616.651 131.437 622.159 128.82 628.033 125.571C632.806 122.864 636.019 121.51 637.671 121.51ZM589.482 34.0573C577.733 34.0573 568.278 37.6673 561.119 44.8873C554.143 52.1074 550.012 62.3057 548.727 75.4822H626.656C626.289 62.1252 622.893 51.9269 616.468 44.8873C610.042 37.6673 601.047 34.0573 589.482 34.0573Z" fill="#F4F4F4"/>
<path d="M745.435 17.5415C753.145 17 757 20.0685 757 26.747C757 29.635 756.174 31.9816 754.522 33.7866C752.869 35.4111 750.024 36.4038 745.985 36.7648L737.724 37.5771C725.424 38.6601 716.246 42.9921 710.187 50.5731C704.313 57.9736 701.376 66.7279 701.376 76.836V142.628C701.376 146.238 700.366 148.946 698.347 150.751C696.327 152.556 693.665 153.458 690.361 153.458C687.057 153.458 684.303 152.556 682.1 150.751C680.08 148.765 679.071 146.058 679.071 142.628V28.3715C679.071 24.942 680.172 22.3248 682.375 20.5198C684.578 18.5343 687.24 17.5415 690.361 17.5415C693.298 17.5415 695.776 18.5343 697.796 20.5198C699.815 22.3248 700.825 24.8518 700.825 28.1008V43.2628C704.68 35.3208 710.096 29.274 717.072 25.1225C724.231 20.971 732.401 18.5343 741.579 17.8123L745.435 17.5415Z" fill="#F4F4F4"/>
</svg>
